<svg width="440" height="299" viewBox="0 0 440 299" fill="none" xmlns="http://www.w3.org/2000/svg">
<path d="M57.1749 298.404C37.6749 298.604 8.57494 287.804 13.4749 263.604C16.7749 247.204 2.97494 231.804 0.474936 215.304C-2.42506 196.304 8.17493 176.104 26.2749 166.204C32.6749 162.704 40.2749 160.204 44.6749 154.604C58.3749 137.604 35.3749 116.404 44.1749 93.6038C49.2749 80.5038 64.1749 73.3038 84.0749 74.5038C104.475 75.8038 124.075 72.0038 126.575 53.5038C128.675 38.6038 128.475 28.1038 144.275 15.3038C170.475 -5.99622 235.975 -8.79622 249.275 31.2038C253.175 42.8038 264.175 68.2038 302.475 46.7038C332.275 29.9038 402.875 49.3038 380.275 97.7038C371.375 116.804 388.875 122.904 415.975 132.804C436.275 140.204 453.275 177.104 411.675 208.804C405.675 213.304 419.675 226.204 425.475 230.904C458.875 257.904 427.475 297.704 396.075 298.404C396.075 298.404 76.6749 298.204 57.1749 298.404ZM103.375 39.5038C92.2749 37.0038 88.7749 48.5038 89.1749 56.8038C89.2749 58.4038 89.3749 60.1038 90.0749 61.5038C91.1749 63.5038 93.3749 64.8038 95.5749 65.4038C99.1749 66.4038 103.175 66.2038 106.875 65.4038C109.275 64.9038 111.675 64.1038 113.375 62.4038C120.175 55.6038 111.675 41.3038 103.375 39.5038ZM292.875 34.6038C292.675 37.5038 290.375 40.0038 287.675 41.2038C284.975 42.5038 281.875 42.8038 278.875 43.0038C274.575 43.3038 269.575 43.3038 266.675 40.2038C264.675 38.1038 264.175 34.9038 264.575 32.1038C265.775 24.9038 270.375 17.8038 278.775 18.7038C285.175 19.5038 293.175 28.5038 292.875 34.6038ZM303.375 17.3038C302.375 18.0038 300.975 18.2038 299.775 17.9038C299.175 17.8038 298.475 17.5038 297.975 17.1038C294.375 14.5038 295.775 9.60378 300.375 10.1038C303.975 10.5038 307.475 14.6038 303.375 17.3038ZM412.175 107.304C413.375 109.004 414.275 111.104 413.575 113.004C413.075 114.404 411.775 115.404 410.475 116.004C407.675 117.304 404.275 117.004 401.375 115.804C398.475 114.704 395.975 112.804 393.575 110.804C392.475 109.904 391.475 109.004 390.875 107.804C390.475 106.904 390.375 105.904 390.375 105.004C390.275 103.304 390.475 101.604 390.975 100.004C391.675 97.9038 392.975 96.0038 394.275 94.3038C396.275 91.7038 399.175 88.6038 402.975 89.2038C405.275 89.6038 405.775 90.9038 405.875 93.0038C405.875 95.3038 405.375 97.5038 406.275 99.8038C407.275 102.804 410.375 104.804 412.175 107.304ZM18.7749 156.504C15.0749 159.604 8.77494 159.104 5.57494 155.404C-5.62506 142.404 4.27494 110.404 25.1749 115.004C32.9749 116.704 38.8749 125.404 35.3749 133.004C33.3749 137.304 28.0749 139.504 25.5749 143.504C22.9749 147.704 22.7749 153.204 18.7749 156.504Z" fill="#008ACA"/>
</svg>
