<svg width="29" height="25" viewBox="0 0 29 25" fill="none" xmlns="http://www.w3.org/2000/svg">
<path d="M27.3302 23.5352H1.037C0.584727 23.5352 0.21875 23.8627 0.21875 24.2676C0.21875 24.6724 0.584727 25 1.037 25H27.3302C27.7825 25 28.1484 24.6724 28.1484 24.2676C28.1484 23.8627 27.7825 23.5352 27.3302 23.5352Z" fill="#0997D9"/>
<path d="M7.63757 11.7676H2.67351C2.22123 11.7676 1.85526 12.0952 1.85526 12.5V16.1621H8.45583V12.5C8.45583 12.0952 8.08985 11.7676 7.63757 11.7676Z" fill="#0997D9"/>
<path d="M8.45583 17.627H1.85526V22.0703H8.45583V17.627Z" fill="#0997D9"/>
<path d="M16.6384 5.9082H11.7288C11.2766 5.9082 10.9106 6.23579 10.9106 6.64062V16.1621H17.4566V6.64062C17.4566 6.23579 17.0906 5.9082 16.6384 5.9082Z" fill="#0997D9"/>
<path d="M17.4566 17.627H10.9106V22.0703H17.4566V17.627Z" fill="#0997D9"/>
<path d="M25.6937 0H20.7296C20.2773 0 19.9114 0.327588 19.9114 0.732422V7.37305H26.5119V0.732422C26.5119 0.327588 26.146 0 25.6937 0Z" fill="#0997D9"/>
<path d="M26.5119 8.83789H19.9114V22.0703H26.5119V8.83789Z" fill="#0997D9"/>
</svg>
