<svg width="24" height="24" viewBox="0 0 24 24" fill="none" xmlns="http://www.w3.org/2000/svg">
<g clip-path="url(#clip0_3_312)">
<path d="M18.2495 1.7523C12.5988 -1.69343 5.19834 0.100476 1.75265 5.75112C-1.69304 11.4018 0.100821 18.8022 5.75146 22.2479C6.06627 22.4399 6.38666 22.6153 6.71137 22.7751C6.71662 22.7776 6.72191 22.7803 6.72726 22.7828C8.40552 23.6052 10.202 24.0001 11.9807 24.0001C16.0313 24.0001 19.9896 21.9532 22.2483 18.2491C25.694 12.5984 23.9001 5.19804 18.2495 1.7523ZM9.0884 2.19743L8.94192 2.77948L5.81226 4.54085L5.17406 4.38026C6.2902 3.37765 7.61971 2.63182 9.0884 2.19743ZM6.20465 15.1204L6.03627 15.3068C5.51254 15.8863 5.28777 16.6604 5.41949 17.4303L5.89391 20.2029C3.97818 18.7819 2.63118 16.7557 2.06235 14.4091C1.63279 12.637 1.68177 10.8242 2.18441 9.12082L5.13079 10.807C5.42291 10.9742 5.56959 11.3189 5.48741 11.6453C5.27512 12.4889 5.50523 13.3699 6.10293 14.0018L6.19298 14.097C6.46152 14.3809 6.46659 14.8305 6.20465 15.1204ZM12.4398 22.2193L12.2562 21.0988L12.4041 21.0333C12.9379 20.7967 13.5614 20.9767 13.8868 21.4615L14.2338 21.9785C13.6379 22.1122 13.0381 22.1924 12.4398 22.2193ZM20.7312 17.324C19.6014 19.1768 17.9517 20.5912 15.9902 21.4174C15.9751 21.3882 15.9585 21.3595 15.9397 21.3315L15.3622 20.4711C14.5551 19.2686 13.0081 18.8218 11.684 19.4088L10.9083 19.7526C10.5386 19.9166 10.3262 20.3095 10.3916 20.7086L10.6259 22.1383C9.68943 22.0116 8.77195 21.7532 7.8959 21.3671L7.17098 17.1305C7.1317 16.9012 7.19868 16.6706 7.35473 16.498L7.5231 16.3117C8.40262 15.3383 8.38546 13.8291 7.48406 12.876L7.39401 12.7808C7.21598 12.5926 7.14745 12.3302 7.21063 12.0789C7.48635 10.9832 6.99402 9.82596 6.01345 9.26473L2.84249 7.45005C2.97332 7.18774 3.11531 6.92941 3.26971 6.6762C3.43973 6.39748 3.62179 6.12888 3.81459 5.87041L5.72231 6.35046C5.79379 6.36846 5.86659 6.37737 5.9391 6.37737C6.09056 6.37737 6.24084 6.33865 6.37485 6.26318L10.146 4.14077C10.3584 4.02124 10.5125 3.81973 10.5719 3.58334L10.9869 1.93404C10.9963 1.89654 11.0024 1.85904 11.0068 1.82163C11.3445 1.78798 11.6823 1.77021 12.0191 1.77021C13.8744 1.77021 15.6999 2.27885 17.3242 3.26937C17.5133 3.38468 17.6974 3.50599 17.8772 3.63199C17.8761 3.63326 17.8748 3.63424 17.8737 3.63541L16.4264 5.2173L12.6123 5.36538C12.3172 5.37682 12.0471 5.53418 11.8916 5.78515L10.23 8.46635C10.0371 8.77774 10.055 9.17557 10.2751 9.46835L11.3268 10.867C11.5446 11.1566 11.6634 11.5155 11.6616 11.8778L11.6521 13.7013C11.6484 14.4225 11.9619 15.1035 12.5122 15.5696C12.9556 15.9453 13.5112 16.1462 14.082 16.1462C14.2198 16.1462 14.3585 16.1345 14.4966 16.1107L16.5221 15.7622C17.2682 15.6339 17.9613 15.2562 18.4737 14.6989C18.7794 14.3663 19.1965 14.1751 19.648 14.1607C20.0991 14.1456 20.528 14.3104 20.8544 14.6227L21.4241 15.1679C21.4984 15.2391 21.5822 15.2938 21.6708 15.3341C21.4323 16.0213 21.119 16.6881 20.7312 17.324ZM22.1365 13.3901L22.083 13.339C21.4089 12.6938 20.5242 12.3548 19.5913 12.3846C18.6586 12.4144 17.7971 12.8091 17.1656 13.4962C16.9175 13.766 16.582 13.9488 16.2208 14.011L14.1953 14.3595C13.933 14.4046 13.7479 14.2875 13.6607 14.2138C13.5736 14.14 13.4277 13.9765 13.429 13.7105L13.4384 11.8871C13.4423 11.1387 13.1967 10.3972 12.747 9.7991L12.0605 8.88607L13.1533 7.12268L16.8661 6.97859C17.1032 6.9694 17.3269 6.86571 17.4871 6.69054L19.185 4.83499C19.2039 4.81437 19.2212 4.79294 19.2378 4.7711C20.5545 6.08454 21.4893 7.73782 21.9386 9.59116C22.2449 10.855 22.3077 12.1394 22.1365 13.3901Z" fill="black"/>
</g>
<defs>
<clipPath id="clip0_3_312">
<rect width="24" height="24" fill="white"/>
</clipPath>
</defs>
</svg>
