<svg width="96" height="72" viewBox="0 0 96 72" fill="none" xmlns="http://www.w3.org/2000/svg">
<path fill-rule="evenodd" clip-rule="evenodd" d="M79.3463 -92.64C96.6954 -97.7396 115.389 -87.6312 129.814 -76.7074C144.064 -65.9162 152.131 -49.5951 158.349 -32.8141C164.821 -15.3483 173.663 4.14892 166.079 21.1592C158.597 37.94 136.99 41.3173 121.16 50.5963C107.311 58.7138 95.3888 71.8968 79.3463 71.9991C63.2671 72.1017 47.8398 63.1661 37.1444 51.1321C27.5511 40.3382 30.5783 23.9259 24.8351 10.666C18.1108 -4.85939 -4.67571 -16.656 0.857984 -32.6466C6.42916 -48.7455 33.0892 -41.9165 46.6077 -52.2496C60.7147 -63.0324 62.3221 -87.6359 79.3463 -92.64Z" fill="#00664F"/>
</svg>
