<svg width="29" height="25" viewBox="0 0 29 25" fill="none" xmlns="http://www.w3.org/2000/svg">
<path d="M27.3982 10.8738C27.3976 10.8732 27.3969 10.8727 27.3963 10.8721L16.002 0.674438C15.5163 0.239563 14.8706 0 14.1838 0C13.4969 0 12.8512 0.239372 12.3653 0.674248L0.977018 10.8667C0.973182 10.8702 0.969346 10.8738 0.96551 10.8772C-0.0318367 11.775 -0.0301319 13.2317 0.970412 14.1272C1.42753 14.5365 2.03127 14.7736 2.67677 14.7984C2.70298 14.8006 2.72941 14.8018 2.75605 14.8018H3.21018V22.3066C3.21018 23.7917 4.56022 25 6.21991 25H10.6777C11.1295 25 11.496 24.6721 11.496 24.2676V18.3838C11.496 17.7061 12.1119 17.1549 12.8691 17.1549H15.4984C16.2556 17.1549 16.8715 17.7061 16.8715 18.3838V24.2676C16.8715 24.6721 17.2378 25 17.6898 25H22.1476C23.8073 25 25.1574 23.7917 25.1574 22.3066V14.8018H25.5785C26.2651 14.8018 26.9108 14.5624 27.3969 14.1275C28.3985 13.2305 28.3989 11.7714 27.3982 10.8738Z" fill="#0997D9"/>
</svg>
