<svg width="16" height="16" viewBox="0 0 16 16" fill="none" xmlns="http://www.w3.org/2000/svg">
<path d="M12 2.98666C10.9391 1.92579 9.50028 1.3298 7.99999 1.3298C6.4997 1.3298 5.06086 1.92579 3.99999 2.98666C2.93913 4.04752 2.34314 5.48637 2.34314 6.98666C2.34314 8.48695 2.93913 9.92579 3.99999 10.9867L7.51333 14.5067C7.5753 14.5691 7.64904 14.6187 7.73028 14.6526C7.81152 14.6864 7.89865 14.7039 7.98666 14.7039C8.07467 14.7039 8.1618 14.6864 8.24304 14.6526C8.32428 14.6187 8.39802 14.5691 8.45999 14.5067L12 10.9533C13.0564 9.89687 13.6499 8.46403 13.6499 6.96999C13.6499 5.47596 13.0564 4.04311 12 2.98666ZM11.0467 9.99999L7.99999 13.06L4.95333 9.99999C4.35142 9.39754 3.94164 8.63015 3.77579 7.79485C3.60994 6.95955 3.69545 6.09382 4.02153 5.30711C4.34761 4.5204 4.89961 3.84802 5.60775 3.37498C6.31589 2.90193 7.14838 2.64945 7.99999 2.64945C8.8516 2.64945 9.6841 2.90193 10.3922 3.37498C11.1004 3.84802 11.6524 4.5204 11.9785 5.30711C12.3045 6.09382 12.3901 6.95955 12.2242 7.79485C12.0583 8.63015 11.6486 9.39754 11.0467 9.99999ZM5.99999 4.93999C5.4618 5.47984 5.15959 6.21104 5.15959 6.97332C5.15959 7.73561 5.4618 8.46681 5.99999 9.00666C6.39983 9.40718 6.90905 9.68071 7.46376 9.79293C8.01847 9.90514 8.59396 9.85105 9.11804 9.63743C9.64212 9.42381 10.0914 9.06018 10.4096 8.59216C10.7278 8.12414 10.9007 7.57257 10.9067 7.00666C10.9097 6.62879 10.8369 6.25416 10.6926 5.90492C10.5483 5.55567 10.3355 5.23889 10.0667 4.97332C9.80244 4.70304 9.48738 4.48768 9.13961 4.33963C8.79184 4.19159 8.41822 4.11377 8.04026 4.11068C7.6623 4.10758 7.28746 4.17926 6.93731 4.32158C6.58716 4.46391 6.26861 4.67408 5.99999 4.93999ZM9.12666 8.05999C8.87402 8.31649 8.54013 8.47726 8.18208 8.51483C7.82402 8.55239 7.46404 8.46442 7.16366 8.26594C6.86329 8.06747 6.64119 7.77082 6.53533 7.42671C6.42947 7.08261 6.44643 6.71242 6.5833 6.37943C6.72017 6.04644 6.96846 5.77133 7.28572 5.60115C7.60297 5.43096 7.96949 5.37626 8.32262 5.4464C8.67574 5.51654 8.99353 5.70716 9.22167 5.98568C9.4498 6.26419 9.5741 6.6133 9.57333 6.97332C9.56363 7.38484 9.39099 7.77568 9.09333 8.05999H9.12666Z" fill="#182A88"/>
</svg>
