<svg width="100" height="78" viewBox="0 0 100 78" fill="none" xmlns="http://www.w3.org/2000/svg">
<path fill-rule="evenodd" clip-rule="evenodd" d="M79.3463 -86.64C96.6954 -91.7396 115.389 -81.6312 129.814 -70.7074C144.064 -59.9162 152.131 -43.5951 158.349 -26.8141C164.821 -9.34831 173.663 10.1489 166.079 27.1592C158.597 43.94 136.99 47.3173 121.16 56.5963C107.311 64.7138 95.3888 77.8968 79.3463 77.9991C63.2671 78.1017 47.8398 69.1661 37.1444 57.1321C27.5511 46.3382 30.5783 29.9259 24.8351 16.666C18.1108 1.14061 -4.67571 -10.656 0.857984 -26.6466C6.42916 -42.7455 33.0892 -35.9165 46.6077 -46.2496C60.7147 -57.0324 62.3221 -81.6359 79.3463 -86.64Z" fill="#E786D7"/>
</svg>
