<svg width="29" height="25" viewBox="0 0 29 25" fill="none" xmlns="http://www.w3.org/2000/svg">
<path d="M5.36117 11.6635H7.23037V13.3366H5.36117V11.6635Z" fill="#0997D9"/>
<path d="M0.21875 22.3064C0.21875 23.7917 1.56865 25 3.22796 25H25.139C26.7985 25 28.1484 23.7917 28.1484 22.3064V7.74108H0.21875V22.3064ZM11.5543 10.1987H23.8245C24.2762 10.1987 24.6427 10.5266 24.6427 10.9311C24.6427 11.3355 24.2762 11.6636 23.8245 11.6636H11.5543C11.1024 11.6636 10.7361 11.3355 10.7361 10.9311C10.7361 10.5266 11.1024 10.1987 11.5543 10.1987ZM11.5543 13.3367H23.8245C24.2762 13.3367 24.6427 13.6646 24.6427 14.0691C24.6427 14.4737 24.2762 14.8015 23.8245 14.8015H11.5543C11.1024 14.8015 10.7361 14.4737 10.7361 14.0691C10.7361 13.6646 11.1024 13.3367 11.5543 13.3367ZM3.72466 10.9311C3.72466 10.5266 4.09096 10.1987 4.54292 10.1987H8.04862C8.50057 10.1987 8.86687 10.5266 8.86687 10.9311V14.0691C8.86687 14.4737 8.50057 14.8015 8.04862 14.8015H4.54292C4.09096 14.8015 3.72466 14.4737 3.72466 14.0691V10.9311ZM4.54292 16.4747H23.8245C24.2762 16.4747 24.6427 16.8026 24.6427 17.2071C24.6427 17.6117 24.2762 17.9395 23.8245 17.9395H4.54292C4.09096 17.9395 3.72466 17.6117 3.72466 17.2071C3.72466 16.8026 4.09075 16.4747 4.54292 16.4747ZM4.54292 19.6129H23.8245C24.2762 19.6129 24.6427 19.9407 24.6427 20.3453C24.6427 20.7496 24.2762 21.0777 23.8245 21.0777H4.54292C4.09096 21.0777 3.72466 20.7496 3.72466 20.3453C3.72466 19.9407 4.09075 19.6129 4.54292 19.6129Z" fill="#0997D9"/>
<path d="M25.139 0H3.22796C1.56865 0 0.21875 1.20831 0.21875 2.69357V6.27597H28.1484V2.69357C28.1484 1.20831 26.7985 0 25.139 0ZM20.3186 4.60284H8.0484C7.59666 4.60284 7.23015 4.27496 7.23015 3.87041C7.23015 3.46586 7.59666 3.13799 8.0484 3.13799H20.3186C20.7705 3.13799 21.1368 3.46586 21.1368 3.87041C21.1368 4.27496 20.7705 4.60284 20.3186 4.60284Z" fill="#0997D9"/>
</svg>
