<svg width="24" height="24" viewBox="0 0 24 24" fill="none" xmlns="http://www.w3.org/2000/svg">
<g clip-path="url(#clip0_3_330)">
<path d="M22.9313 4.65317H11.2877L6.71721 20.7425C6.57898 21.1713 6.1868 21.4682 5.73649 21.4837C5.72379 21.4837 5.71152 21.484 5.69946 21.484C5.2639 21.484 4.87 21.219 4.70712 20.8124L2.83859 16.1412H1.06851C0.478194 16.1413 0 15.6628 0 15.0726C0 14.4824 0.478678 14.0039 1.06851 14.0039H3.56223C3.99871 14.0039 4.39229 14.2699 4.55457 14.6759L5.59003 17.2644L9.49094 3.25777C9.63299 2.8157 10.0442 2.51599 10.5084 2.51599H22.9314C23.5219 2.51599 24.0001 2.99451 24.0001 3.5845C24.0001 4.17449 23.5215 4.65317 22.9313 4.65317ZM23.5072 19.013L19.2948 14.2814L23.309 9.82551C23.3799 9.74724 23.3971 9.63458 23.3551 9.53802C23.3118 9.44162 23.2164 9.37945 23.1107 9.37945H20.5712C20.4936 9.37945 20.4204 9.4133 20.3689 9.47203L17.6744 12.5965L15.0006 9.473C14.9501 9.41363 14.8759 9.37945 14.7976 9.37945H12.1422C12.0369 9.37945 11.9414 9.44129 11.8988 9.5371C11.8552 9.63318 11.873 9.74568 11.9432 9.82411L15.9125 14.2815L11.7333 19.014C11.6635 19.0929 11.647 19.2052 11.6896 19.3007C11.7333 19.3968 11.8288 19.4578 11.9333 19.4578H14.5654C14.6447 19.4578 14.7197 19.4229 14.7703 19.3618L17.5596 16.0148L20.4151 19.3643C20.4662 19.4241 20.5404 19.4582 20.6186 19.4582H23.3083C23.4139 19.4582 23.5094 19.3968 23.552 19.3007C23.595 19.2042 23.5778 19.0918 23.5072 19.013Z" fill="black"/>
</g>
<defs>
<clipPath id="clip0_3_330">
<rect width="24" height="24" fill="white"/>
</clipPath>
</defs>
</svg>
