<svg width="29" height="23" viewBox="0 0 29 23" fill="none" xmlns="http://www.w3.org/2000/svg">
<path d="M24.3414 10.9366C23.0081 11.9356 21.3009 12.5365 19.4424 12.5365C18.799 12.5365 18.1738 12.4644 17.5761 12.329C18.645 13.8086 19.2678 15.5772 19.2678 17.4757V20.2642C19.2678 21.3072 18.8489 22.2623 18.1572 23H25.1392C26.7985 23 28.1484 21.7728 28.1484 20.2642V17.4757C28.1484 14.7618 26.6379 12.3629 24.3414 10.9366Z" fill="#0997D9"/>
<path d="M8.92509 11.0487C12.2759 11.0487 15.0019 8.57059 15.0019 5.52447C15.0019 2.47816 12.2759 0 8.92509 0C5.5743 0 2.84828 2.47816 2.84828 5.52447C2.84828 8.57059 5.5743 11.0487 8.92509 11.0487Z" fill="#0997D9"/>
<path d="M19.4421 11.0487C22.7929 11.0487 25.5191 8.57059 25.5191 5.52447C25.5191 2.47816 22.7929 0 19.4421 0C17.8211 0 16.3465 0.579973 15.2558 1.52354C16.1266 2.65908 16.6383 4.03831 16.6383 5.52447C16.6383 7.01043 16.1266 8.38966 15.2558 9.5252C16.3465 10.4688 17.8211 11.0487 19.4421 11.0487Z" fill="#0997D9"/>
<path d="M13.8241 10.9366C12.4911 11.9356 10.7838 12.5365 8.92505 12.5365C7.06629 12.5365 5.35904 11.9358 4.02576 10.9366C1.72932 12.3629 0.21875 14.7618 0.21875 17.4757V20.2642C0.21875 21.7728 1.56865 23 3.22817 23H14.6217C16.2812 23 17.6311 21.7728 17.6311 20.2642V17.4757C17.6311 14.7618 16.1208 12.3629 13.8241 10.9366Z" fill="#0997D9"/>
</svg>
