<svg width="103" height="73" viewBox="0 0 103 73" fill="none" xmlns="http://www.w3.org/2000/svg">
<path fill-rule="evenodd" clip-rule="evenodd" d="M79.3463 -91.64C96.6954 -96.7396 115.389 -86.6312 129.814 -75.7074C144.064 -64.9162 152.131 -48.5951 158.349 -31.8141C164.821 -14.3483 173.663 5.14892 166.079 22.1592C158.597 38.94 136.99 42.3173 121.16 51.5963C107.311 59.7138 95.3888 72.8968 79.3463 72.9991C63.2671 73.1017 47.8398 64.1661 37.1444 52.1321C27.5511 41.3382 30.5783 24.9259 24.8351 11.666C18.1108 -3.85939 -4.67571 -15.656 0.857984 -31.6466C6.42916 -47.7455 33.0892 -40.9165 46.6077 -51.2496C60.7147 -62.0324 62.3221 -86.6359 79.3463 -91.64Z" fill="#F9E324"/>
</svg>
